 <svg  xmlns="http://www.w3.org/2000/svg"
                        width="28" height="24" viewBox="0 0 28 24" fill="none">
                        <path
                            d="M10.2445 10.625C11.6349 10.625 12.762 9.39378 12.762 7.875C12.762 6.35622 11.6349 5.125 10.2445 5.125C8.85417 5.125 7.72705 6.35622 7.72705 7.875C7.72705 9.39378 8.85417 10.625 10.2445 10.625Z"
                            stroke="#595959" stroke-width="2" />
                        <path
                            d="M15.2799 16.125C15.2799 17.6444 15.2799 18.875 10.2449 18.875C5.20996 18.875 5.20996 17.6444 5.20996 16.125C5.20996 14.6056 7.46311 13.375 10.2449 13.375C13.0267 13.375 15.2799 14.6056 15.2799 16.125Z"
                            stroke="#595959" stroke-width="2" />
                        <path opacity="0.5"
                            d="M1.43359 12C1.43359 6.81488 1.43359 4.22162 2.90884 2.6115C4.38282 1 6.75681 1 11.5035 1H16.5385C21.2852 1 23.6592 1 25.1332 2.6115C26.6084 4.22162 26.6084 6.81488 26.6084 12C26.6084 17.1851 26.6084 19.7784 25.1332 21.3885C23.6592 23 21.2852 23 16.5385 23H11.5035C6.75681 23 4.38282 23 2.90884 21.3885C1.43359 19.7784 1.43359 17.1851 1.43359 12Z"
                            stroke="#595959" stroke-width="2" />
                        <path d="M22.8323 12H17.7973M22.8323 7.875H16.5386" stroke="#595959" stroke-width="2"
                            stroke-linecap="round" />
                        <path opacity="0.9" d="M22.8319 16.125H19.0557" stroke="#595959" stroke-width="2"
                            stroke-linecap="round" />
                    </svg>